<svg version="1.1" id="Layer_1" xmlns="http://www.w3.org/2000/svg" xmlns:xlink="http://www.w3.org/1999/xlink" x="0" y="0" viewBox="0 0 512 512" xml:space="preserve" enable-background="new 0 0 512 512">
  <style type="text/css">
    
	.st0{fill:#6FC3DF;}
	.st1{fill:#CF131C;}
	.st2{fill:#FAF75B;}
	.st3{fill:#FAD32E;}
	.st4{fill:#FA557E;}

  </style>
  <path class="st0" d="M164 209.5H19.1C8.5 209.5 0 201 0 190.5v-112c0-21.1 17.1-38.2 38.2-38.2H164c10.5 0 19.1 8.5 19.1 19.1v131.1C183.1 201 174.5 209.5 164 209.5z"/>
  <path class="st0" d="M164 471.7H38.2C17.1 471.7 0 454.6 0 433.5v-112c0-10.5 8.5-19.1 19.1-19.1H164c10.5 0 19.1 8.5 19.1 19.1v131.1C183.1 463.2 174.5 471.7 164 471.7z"/>
  <path class="st1" d="M473.8 471.7H348c-10.5 0-19.1-8.5-19.1-19.1V321.5c0-10.5 8.5-19.1 19.1-19.1h144.9c10.5 0 19.1 8.5 19.1 19.1v112C512 454.6 494.9 471.7 473.8 471.7z"/>
  <path class="st1" d="M492.9 209.5H348c-10.5 0-19.1-8.5-19.1-19.1V59.4c0-10.5 8.5-19.1 19.1-19.1h125.8c21.1 0 38.2 17.1 38.2 38.2v112C512 201 503.5 209.5 492.9 209.5z"/>
  <path class="st2" d="M348 209.5H164c-10.5 0-19.1-8.5-19.1-19.1V59.4c0-10.5 8.5-19.1 19.1-19.1H348c10.5 0 19.1 8.5 19.1 19.1v131.1C367.1 201 358.6 209.5 348 209.5z"/>
  <path class="st3" d="M348 40.3h-92v169.3h92c10.5 0 19.1-8.5 19.1-19.1V59.4C367.1 48.8 358.6 40.3 348 40.3z"/>
  <path class="st2" d="M348 471.7H164c-10.5 0-19.1-8.5-19.1-19.1V321.5c0-10.5 8.5-19.1 19.1-19.1H348c10.5 0 19.1 8.5 19.1 19.1v131.1C367.1 463.2 358.6 471.7 348 471.7z"/>
  <path class="st4" d="M348 302.5h-92v169.3h92c10.5 0 19.1-8.5 19.1-19.1V321.5C367.1 311 358.6 302.5 348 302.5z"/>
  <path class="st4" d="M509.5 340.6H0V171.4h509.5V340.6z"/>
  <path class="st0" d="M512 340.6H256V171.4h256V340.6z"/>
</svg>
