<svg version="1.1" id="Capa_1" xmlns="http://www.w3.org/2000/svg" xmlns:xlink="http://www.w3.org/1999/xlink" x="0" y="0" viewBox="0 0 391.6 391.6" xml:space="preserve" enable-background="new 0 0 391.6 391.6">
  <style type="text/css">
    
	.st0{fill:#6FC3DF;}
	.st1{fill:#FAF75B;}

  </style>
  <path class="st0" d="M43.1 260.8c-4.4-5.6-11.3-9.1-18.9-9.1C10.8 251.7 0 262.5 0 275.8 0 289.2 10.8 300 24.1 300c7.7 0 14.5-3.6 18.9-9.1h32.7v-30H43.1z"/>
  <path class="st0" d="M43.1 180.8c-4.4-5.6-11.3-9.1-18.9-9.1C10.8 171.7 0 182.5 0 195.8 0 209.2 10.8 220 24.1 220c7.7 0 14.5-3.6 18.9-9.1h32.7v-30L43.1 180.8 43.1 180.8z"/>
  <path class="st0" d="M43.1 100.8c-4.4-5.6-11.3-9.2-18.9-9.2C10.8 91.7 0 102.5 0 115.8S10.8 140 24.1 140c7.7 0 14.5-3.6 18.9-9.1h32.7v-30H43.1z"/>
  <path class="st0" d="M348.6 290.8c4.4 5.6 11.3 9.1 18.9 9.1 13.3 0 24.1-10.8 24.1-24.1 0-13.3-10.8-24.1-24.1-24.1 -7.7 0-14.5 3.6-18.9 9.1h-32.7v30H348.6z"/>
  <path class="st0" d="M348.6 210.8c4.4 5.6 11.3 9.1 18.9 9.1 13.3 0 24.1-10.8 24.1-24.1 0-13.3-10.8-24.1-24.1-24.1 -7.7 0-14.5 3.6-18.9 9.1h-32.7v30L348.6 210.8 348.6 210.8z"/>
  <path class="st0" d="M348.6 130.8c4.4 5.6 11.3 9.1 18.9 9.1 13.3 0 24.1-10.8 24.1-24.2s-10.8-24.2-24.1-24.2c-7.7 0-14.5 3.6-18.9 9.2h-32.7v30L348.6 130.8 348.6 130.8z"/>
  <path class="st1" d="M274.6 34.9H117c-8.3 0-15 6.7-15 15v291.8c0 8.3 6.7 15 15 15h157.6c8.3 0 15-6.7 15-15V49.9C289.6 41.7 282.9 34.9 274.6 34.9zM248.8 85.7c-6.4 0-11.5-5.1-11.5-11.5s5.1-11.5 11.5-11.5 11.5 5.1 11.5 11.5S255.2 85.7 248.8 85.7z"/>
</svg>
