<svg version="1.1" xmlns="http://www.w3.org/2000/svg" x="0" y="0" viewBox="0 0 28.7 28.7" xml:space="preserve"><style type="text/css">
	.st0{fill:#FAF75B;}
	.st1{fill:#CF131C;}
</style><path class="st0" d="M14.4 0C6.4 0 0 6.4 0 14.4s6.4 14.4 14.4 14.4c7.9 0 14.4-6.4 14.4-14.4S22.3 0 14.4 0zM14.4 26.6c-6.8 0-12.2-5.5-12.2-12.2 0-6.8 5.5-12.2 12.2-12.2s12.2 5.5 12.2 12.2C26.6 21.1 21.1 26.6 14.4 26.6z"/><polygon class="st1" points="19 5.9 8.6 16.2 12.5 16.2 9.5 24.1 20.1 13.8 16.3 13.8 "/></svg>