<svg version="1.1" id="Layer_1" xmlns="http://www.w3.org/2000/svg" xmlns:xlink="http://www.w3.org/1999/xlink" x="0" y="0" viewBox="0 0 512 512" xml:space="preserve" enable-background="new 0 0 512 512">
  <style type="text/css">
    
	.st0{fill:#CF131C;}
	.st1{fill:#FAF75B;}

  </style>
  <path class="st0" d="M457.1 210.3c-20.2 0-36.6 16.4-36.6 36.6s16.4 36.6 36.6 36.6 36.6-16.4 36.6-36.6S477.3 210.3 457.1 210.3z"/>
  <path class="st1" d="M457.1 192c-27.4 0-50.2 20.3-54.2 46.6h-39.6l-36.7-113.9c-1.2-3.8-4.9-6.3-8.8-6.3 -4 0-7.5 2.7-8.7 6.5L268 263.8l-37.1-101.1c-1.4-3.8-4.8-6.2-9.1-6 -4 0.2-7.4 3-8.4 6.9l-53.1 214.7L126.3 81.2c-0.5-4.3-4-7.7-8.3-8.1 -4.3-0.4-8.4 2.4-9.5 6.6L43.9 309.6l-25.9-88.7c-1.4-4.8-6.5-7.6-11.3-6.2 -4.8 1.4-7.6 6.5-6.2 11.3l34.9 119.3c1.1 3.9 4.7 6.6 8.8 6.6 0 0 0 0 0 0 4.1 0 7.7-2.7 8.8-6.7l60.6-215.6 34.5 301.2c0.5 4.4 4.1 7.8 8.5 8.1 0.2 0 0.4 0 0.6 0 4.2 0 7.8-2.8 8.9-6.9L224.1 197l36.3 99c1.4 3.7 5.1 6.3 8.9 6 3.9-0.1 7.3-2.8 8.5-6.5l40.6-137 29.7 92.1c1.2 3.8 4.7 6.3 8.7 6.3h46.5c4.7 25.5 27.1 44.8 53.9 44.8 30.2 0 54.9-24.6 54.9-54.9S487.4 192 457.1 192zM457.1 283.4c-20.2 0-36.6-16.4-36.6-36.6s16.4-36.6 36.6-36.6 36.6 16.4 36.6 36.6S477.3 283.4 457.1 283.4z"/>
</svg>
